<?xml version="1.0" encoding="UTF-8" standalone="no"?>
<!DOCTYPE svg PUBLIC "-//W3C//DTD SVG 1.1//EN"
 "http://www.w3.org/Graphics/SVG/1.1/DTD/svg11.dtd">
<!-- Generated by graphviz version 14.1.1 (20251213.1925)
 -->
<!-- Title: NewsFeedArchitecture Pages: 1 -->
<svg width="1056pt" height="1050pt"
 viewBox="0.00 0.00 1056.00 1050.00" xmlns="http://www.w3.org/2000/svg" xmlns:xlink="http://www.w3.org/1999/xlink">
<g id="graph0" class="graph" transform="scale(1 1) rotate(0) translate(18 1032.05)">
<title>NewsFeedArchitecture</title>
<polygon fill="white" stroke="none" points="-18,18 -18,-1032.05 1038.09,-1032.05 1038.09,18 -18,18"/>
<text xml:space="preserve" text-anchor="middle" x="510.04" y="-991.05" font-family="Helvetica,sans-Serif" font-size="20.00">Personalized News Feed Ranking System (V2)</text>
<g id="clust3" class="cluster">
<title>cluster_training</title>
<path fill="white" stroke="#abebc6" d="M613,-209.65C613,-209.65 897,-209.65 897,-209.65 903,-209.65 909,-215.65 909,-221.65 909,-221.65 909,-679.25 909,-679.25 909,-685.25 903,-691.25 897,-691.25 897,-691.25 613,-691.25 613,-691.25 607,-691.25 601,-685.25 601,-679.25 601,-679.25 601,-221.65 601,-221.65 601,-215.65 607,-209.65 613,-209.65"/>
<text xml:space="preserve" text-anchor="middle" x="755" y="-673.95" font-family="Helvetica,sans-Serif" font-weight="bold" font-size="14.00">Offline Training Pipeline</text>
</g>
<g id="clust4" class="cluster">
<title>cluster_serving</title>
<path fill="white" stroke="#f5cba7" d="M20,-220.23C20,-220.23 310,-220.23 310,-220.23 316,-220.23 322,-226.23 322,-232.23 322,-232.23 322,-800.9 322,-800.9 322,-806.9 316,-812.9 310,-812.9 310,-812.9 20,-812.9 20,-812.9 14,-812.9 8,-806.9 8,-800.9 8,-800.9 8,-232.23 8,-232.23 8,-226.23 14,-220.23 20,-220.23"/>
<text xml:space="preserve" text-anchor="middle" x="165" y="-795.6" font-family="Helvetica,sans-Serif" font-weight="bold" font-size="14.00">Online Serving Pipeline</text>
</g>
<g id="clust5" class="cluster">
<title>cluster_ui</title>
<path fill="white" stroke="#f5b7b1" d="M717,-8C717,-8 931,-8 931,-8 937,-8 943,-14 943,-20 943,-20 943,-169.65 943,-169.65 943,-175.65 937,-181.65 931,-181.65 931,-181.65 717,-181.65 717,-181.65 711,-181.65 705,-175.65 705,-169.65 705,-169.65 705,-20 705,-20 705,-14 711,-8 717,-8"/>
<text xml:space="preserve" text-anchor="middle" x="824" y="-164.35" font-family="Helvetica,sans-Serif" font-weight="bold" font-size="14.00">User Experience &amp; Feedback Loop</text>
</g>
<!-- hn -->
<g id="node1" class="node">
<title>hn</title>
<path fill="#eaf4ff" stroke="#444444" stroke-width="1.2" d="M822.21,-979.35C822.21,-979.35 725.79,-979.35 725.79,-979.35 719.79,-979.35 713.79,-973.35 713.79,-967.35 713.79,-967.35 713.79,-955.35 713.79,-955.35 713.79,-949.35 719.79,-943.35 725.79,-943.35 725.79,-943.35 822.21,-943.35 822.21,-943.35 828.21,-943.35 834.21,-949.35 834.21,-955.35 834.21,-955.35 834.21,-967.35 834.21,-967.35 834.21,-973.35 828.21,-979.35 822.21,-979.35"/>
<text xml:space="preserve" text-anchor="middle" x="774" y="-957.08" font-family="Helvetica,sans-Serif" font-size="12.00">Hacker News API</text>
</g>
<!-- ingest -->
<g id="node3" class="node">
<title>ingest</title>
<path fill="#dceeff" stroke="#444444" stroke-width="1.2" d="M927.59,-884.9C927.59,-884.9 788.41,-884.9 788.41,-884.9 782.41,-884.9 776.41,-878.9 776.41,-872.9 776.41,-872.9 776.41,-860.9 776.41,-860.9 776.41,-854.9 782.41,-848.9 788.41,-848.9 788.41,-848.9 927.59,-848.9 927.59,-848.9 933.59,-848.9 939.59,-854.9 939.59,-860.9 939.59,-860.9 939.59,-872.9 939.59,-872.9 939.59,-878.9 933.59,-884.9 927.59,-884.9"/>
<text xml:space="preserve" text-anchor="middle" x="858" y="-862.63" font-family="Helvetica,sans-Serif" font-size="12.00">Ingestion &amp; Normalization</text>
</g>
<!-- hn&#45;&gt;ingest -->
<g id="edge1" class="edge">
<title>hn&#45;&gt;ingest</title>
<path fill="none" stroke="#666666" stroke-width="1.2" d="M805.31,-943.14C805.31,-943.14 805.31,-895.19 805.31,-895.19"/>
<polygon fill="#666666" stroke="#666666" stroke-width="1.2" points="808.11,-895.19 805.31,-887.19 802.51,-895.19 808.11,-895.19"/>
</g>
<!-- rss -->
<g id="node2" class="node">
<title>rss</title>
<path fill="#eaf4ff" stroke="#444444" stroke-width="1.2" d="M1008.09,-982.8C1008.09,-982.8 877.91,-982.8 877.91,-982.8 871.91,-982.8 865.91,-976.8 865.91,-970.8 865.91,-970.8 865.91,-951.9 865.91,-951.9 865.91,-945.9 871.91,-939.9 877.91,-939.9 877.91,-939.9 1008.09,-939.9 1008.09,-939.9 1014.09,-939.9 1020.09,-945.9 1020.09,-951.9 1020.09,-951.9 1020.09,-970.8 1020.09,-970.8 1020.09,-976.8 1014.09,-982.8 1008.09,-982.8"/>
<text xml:space="preserve" text-anchor="middle" x="943" y="-964.2" font-family="Helvetica,sans-Serif" font-size="12.00">RSS Feeds</text>
<text xml:space="preserve" text-anchor="middle" x="943" y="-949.95" font-family="Helvetica,sans-Serif" font-size="12.00">(BBC, TechCrunch, etc.)</text>
</g>
<!-- rss&#45;&gt;ingest -->
<g id="edge2" class="edge">
<title>rss&#45;&gt;ingest</title>
<path fill="none" stroke="#666666" stroke-width="1.2" d="M902.75,-939.44C902.75,-939.44 902.75,-895.01 902.75,-895.01"/>
<polygon fill="#666666" stroke="#666666" stroke-width="1.2" points="905.55,-895.01 902.75,-887.01 899.95,-895.01 905.55,-895.01"/>
</g>
<!-- duckdb -->
<g id="node4" class="node">
<title>duckdb</title>
<path fill="#fff6cc" stroke="#444444" stroke-width="1.2" d="M824.46,-777.7C824.46,-777.7 777.54,-777.7 777.54,-777.7 771.54,-777.7 765.54,-771.7 765.54,-765.7 765.54,-765.7 765.54,-753.7 765.54,-753.7 765.54,-747.7 771.54,-741.7 777.54,-741.7 777.54,-741.7 824.46,-741.7 824.46,-741.7 830.46,-741.7 836.46,-747.7 836.46,-753.7 836.46,-753.7 836.46,-765.7 836.46,-765.7 836.46,-771.7 830.46,-777.7 824.46,-777.7"/>
<text xml:space="preserve" text-anchor="middle" x="801" y="-755.43" font-family="Helvetica,sans-Serif" font-size="12.00">DuckDB</text>
</g>
<!-- ingest&#45;&gt;duckdb -->
<g id="edge3" class="edge">
<title>ingest&#45;&gt;duckdb</title>
<path fill="none" stroke="#666666" stroke-width="1.2" d="M806.44,-848.71C806.44,-848.71 806.44,-787.79 806.44,-787.79"/>
<polygon fill="#666666" stroke="#666666" stroke-width="1.2" points="809.24,-787.79 806.44,-779.79 803.64,-787.79 809.24,-787.79"/>
</g>
<!-- parquet -->
<g id="node5" class="node">
<title>parquet</title>
<path fill="#fff6cc" stroke="#444444" stroke-width="1.2" d="M953.59,-777.7C953.59,-777.7 880.41,-777.7 880.41,-777.7 874.41,-777.7 868.41,-771.7 868.41,-765.7 868.41,-765.7 868.41,-753.7 868.41,-753.7 868.41,-747.7 874.41,-741.7 880.41,-741.7 880.41,-741.7 953.59,-741.7 953.59,-741.7 959.59,-741.7 965.59,-747.7 965.59,-753.7 965.59,-753.7 965.59,-765.7 965.59,-765.7 965.59,-771.7 959.59,-777.7 953.59,-777.7"/>
<text xml:space="preserve" text-anchor="middle" x="917" y="-755.43" font-family="Helvetica,sans-Serif" font-size="12.00">Parquet Files</text>
</g>
<!-- ingest&#45;&gt;parquet -->
<g id="edge4" class="edge">
<title>ingest&#45;&gt;parquet</title>
<path fill="none" stroke="#666666" stroke-width="1.2" d="M904,-848.71C904,-848.71 904,-787.79 904,-787.79"/>
<polygon fill="#666666" stroke="#666666" stroke-width="1.2" points="906.8,-787.79 904,-779.79 901.2,-787.79 906.8,-787.79"/>
</g>
<!-- sim -->
<g id="node7" class="node">
<title>sim</title>
<path fill="#e8fff1" stroke="#444444" stroke-width="1.2" d="M889.09,-659.5C889.09,-659.5 788.91,-659.5 788.91,-659.5 782.91,-659.5 776.91,-653.5 776.91,-647.5 776.91,-647.5 776.91,-628.6 776.91,-628.6 776.91,-622.6 782.91,-616.6 788.91,-616.6 788.91,-616.6 889.09,-616.6 889.09,-616.6 895.09,-616.6 901.09,-622.6 901.09,-628.6 901.09,-628.6 901.09,-647.5 901.09,-647.5 901.09,-653.5 895.09,-659.5 889.09,-659.5"/>
<text xml:space="preserve" text-anchor="middle" x="839" y="-640.9" font-family="Helvetica,sans-Serif" font-size="12.00">Simulation Engine</text>
<text xml:space="preserve" text-anchor="middle" x="839" y="-626.65" font-family="Helvetica,sans-Serif" font-size="12.00">(30K interactions)</text>
</g>
<!-- duckdb&#45;&gt;sim -->
<g id="edge8" class="edge">
<title>duckdb&#45;&gt;sim</title>
<path fill="none" stroke="#666666" stroke-width="1.2" d="M806.69,-741.22C806.69,-741.22 806.69,-669.82 806.69,-669.82"/>
<polygon fill="#666666" stroke="#666666" stroke-width="1.2" points="809.49,-669.82 806.69,-661.82 803.89,-669.82 809.49,-669.82"/>
</g>
<!-- feat -->
<g id="node8" class="node">
<title>feat</title>
<path fill="#e8fff1" stroke="#444444" stroke-width="1.2" d="M732.71,-656.05C732.71,-656.05 621.29,-656.05 621.29,-656.05 615.29,-656.05 609.29,-650.05 609.29,-644.05 609.29,-644.05 609.29,-632.05 609.29,-632.05 609.29,-626.05 615.29,-620.05 621.29,-620.05 621.29,-620.05 732.71,-620.05 732.71,-620.05 738.71,-620.05 744.71,-626.05 744.71,-632.05 744.71,-632.05 744.71,-644.05 744.71,-644.05 744.71,-650.05 738.71,-656.05 732.71,-656.05"/>
<text xml:space="preserve" text-anchor="middle" x="677" y="-633.77" font-family="Helvetica,sans-Serif" font-size="12.00">Feature Engineering</text>
</g>
<!-- duckdb&#45;&gt;feat -->
<g id="edge5" class="edge">
<title>duckdb&#45;&gt;feat</title>
<path fill="none" stroke="#666666" stroke-width="1.2" d="M771.23,-741.22C771.23,-707.17 771.23,-638 771.23,-638 771.23,-638 755.05,-638 755.05,-638"/>
<polygon fill="#666666" stroke="#666666" stroke-width="1.2" points="755.05,-635.2 747.05,-638 755.05,-640.8 755.05,-635.2"/>
</g>
<!-- parquet&#45;&gt;sim -->
<g id="edge9" class="edge">
<title>parquet&#45;&gt;sim</title>
<path fill="none" stroke="#666666" stroke-width="1.2" d="M890.2,-741.22C890.2,-741.22 890.2,-669.82 890.2,-669.82"/>
<polygon fill="#666666" stroke="#666666" stroke-width="1.2" points="893,-669.82 890.2,-661.82 887.4,-669.82 893,-669.82"/>
</g>
<!-- parquet&#45;&gt;feat -->
<g id="edge6" class="edge">
<title>parquet&#45;&gt;feat</title>
<path fill="none" stroke="#666666" stroke-width="1.2" d="M879.3,-741.16C879.3,-723.31 879.3,-699 879.3,-699 879.3,-699 729.25,-699 729.25,-699 729.25,-699 729.25,-666.15 729.25,-666.15"/>
<polygon fill="#666666" stroke="#666666" stroke-width="1.2" points="732.05,-666.15 729.25,-658.15 726.45,-666.15 732.05,-666.15"/>
</g>
<!-- events -->
<g id="node6" class="node">
<title>events</title>
<path fill="#fff6cc" stroke="#444444" stroke-width="1.2" d="M558.09,-777.7C558.09,-777.7 493.92,-777.7 493.92,-777.7 487.92,-777.7 481.92,-771.7 481.92,-765.7 481.92,-765.7 481.92,-753.7 481.92,-753.7 481.92,-747.7 487.92,-741.7 493.92,-741.7 493.92,-741.7 558.09,-741.7 558.09,-741.7 564.09,-741.7 570.09,-747.7 570.09,-753.7 570.09,-753.7 570.09,-765.7 570.09,-765.7 570.09,-771.7 564.09,-777.7 558.09,-777.7"/>
<text xml:space="preserve" text-anchor="middle" x="526" y="-755.43" font-family="Helvetica,sans-Serif" font-size="12.00">Event Store</text>
</g>
<!-- events&#45;&gt;feat -->
<g id="edge7" class="edge">
<title>events&#45;&gt;feat</title>
<path fill="none" stroke="#666666" stroke-width="1.2" d="M548.04,-741.22C548.04,-707.17 548.04,-638 548.04,-638 548.04,-638 598.93,-638 598.93,-638"/>
<polygon fill="#666666" stroke="#666666" stroke-width="1.2" points="598.93,-640.8 606.93,-638 598.93,-635.2 598.93,-640.8"/>
</g>
<!-- dataset -->
<g id="node9" class="node">
<title>dataset</title>
<path fill="#e8fff1" stroke="#444444" stroke-width="1.2" d="M774.84,-561.6C774.84,-561.6 685.16,-561.6 685.16,-561.6 679.16,-561.6 673.16,-555.6 673.16,-549.6 673.16,-549.6 673.16,-537.6 673.16,-537.6 673.16,-531.6 679.16,-525.6 685.16,-525.6 685.16,-525.6 774.84,-525.6 774.84,-525.6 780.84,-525.6 786.84,-531.6 786.84,-537.6 786.84,-537.6 786.84,-549.6 786.84,-549.6 786.84,-555.6 780.84,-561.6 774.84,-561.6"/>
<text xml:space="preserve" text-anchor="middle" x="730" y="-539.32" font-family="Helvetica,sans-Serif" font-size="12.00">Training Dataset</text>
</g>
<!-- events&#45;&gt;dataset -->
<g id="edge27" class="edge">
<title>events&#45;&gt;dataset</title>
<path fill="none" stroke="#666666" stroke-width="1.2" d="M526,-741.31C526,-689.15 526,-544 526,-544 526,-544 662.82,-544 662.82,-544"/>
<polygon fill="#666666" stroke="#666666" stroke-width="1.2" points="662.82,-546.8 670.82,-544 662.82,-541.2 662.82,-546.8"/>
<text xml:space="preserve" text-anchor="middle" x="526" y="-634.55" font-family="Helvetica,sans-Serif" font-size="10.00">implicit feedback labels</text>
</g>
<!-- redis -->
<g id="node16" class="node">
<title>redis</title>
<path fill="#fff0e6" stroke="#444444" stroke-width="1.2" d="M301.58,-656.05C301.58,-656.05 192.42,-656.05 192.42,-656.05 186.42,-656.05 180.42,-650.05 180.42,-644.05 180.42,-644.05 180.42,-632.05 180.42,-632.05 180.42,-626.05 186.42,-620.05 192.42,-620.05 192.42,-620.05 301.58,-620.05 301.58,-620.05 307.58,-620.05 313.58,-626.05 313.58,-632.05 313.58,-632.05 313.58,-644.05 313.58,-644.05 313.58,-650.05 307.58,-656.05 301.58,-656.05"/>
<text xml:space="preserve" text-anchor="middle" x="247" y="-633.77" font-family="Helvetica,sans-Serif" font-size="12.00">Redis Feature Store</text>
</g>
<!-- events&#45;&gt;redis -->
<g id="edge26" class="edge">
<title>events&#45;&gt;redis</title>
<path fill="none" stroke="#666666" stroke-width="1.2" d="M481.4,-754C413.46,-754 291.83,-754 291.83,-754 291.83,-754 291.83,-666.24 291.83,-666.24"/>
<polygon fill="#666666" stroke="#666666" stroke-width="1.2" points="294.64,-666.24 291.84,-658.24 289.04,-666.24 294.64,-666.24"/>
<text xml:space="preserve" text-anchor="middle" x="434.75" y="-701.75" font-family="Helvetica,sans-Serif" font-size="10.00">feature updates</text>
</g>
<!-- sim&#45;&gt;dataset -->
<g id="edge10" class="edge">
<title>sim&#45;&gt;dataset</title>
<path fill="none" stroke="#666666" stroke-width="1.2" d="M781.88,-616.14C781.88,-616.14 781.88,-571.71 781.88,-571.71"/>
<polygon fill="#666666" stroke="#666666" stroke-width="1.2" points="784.68,-571.71 781.88,-563.71 779.08,-571.71 784.68,-571.71"/>
</g>
<!-- feat&#45;&gt;dataset -->
<g id="edge11" class="edge">
<title>feat&#45;&gt;dataset</title>
<path fill="none" stroke="#666666" stroke-width="1.2" d="M708.94,-619.84C708.94,-619.84 708.94,-571.89 708.94,-571.89"/>
<polygon fill="#666666" stroke="#666666" stroke-width="1.2" points="711.74,-571.89 708.94,-563.89 706.14,-571.89 711.74,-571.89"/>
</g>
<!-- train -->
<g id="node10" class="node">
<title>train</title>
<path fill="#e8fff1" stroke="#444444" stroke-width="1.2" d="M889.21,-470.6C889.21,-470.6 774.79,-470.6 774.79,-470.6 768.79,-470.6 762.79,-464.6 762.79,-458.6 762.79,-458.6 762.79,-439.7 762.79,-439.7 762.79,-433.7 768.79,-427.7 774.79,-427.7 774.79,-427.7 889.21,-427.7 889.21,-427.7 895.21,-427.7 901.21,-433.7 901.21,-439.7 901.21,-439.7 901.21,-458.6 901.21,-458.6 901.21,-464.6 895.21,-470.6 889.21,-470.6"/>
<text xml:space="preserve" text-anchor="middle" x="832" y="-452" font-family="Helvetica,sans-Serif" font-size="12.00">Model Training</text>
<text xml:space="preserve" text-anchor="middle" x="832" y="-437.75" font-family="Helvetica,sans-Serif" font-size="12.00">(LogReg / LightGBM)</text>
</g>
<!-- dataset&#45;&gt;train -->
<g id="edge12" class="edge">
<title>dataset&#45;&gt;train</title>
<path fill="none" stroke="#666666" stroke-width="1.2" d="M774.81,-525.39C774.81,-525.39 774.81,-480.77 774.81,-480.77"/>
<polygon fill="#666666" stroke="#666666" stroke-width="1.2" points="777.61,-480.77 774.81,-472.77 772.01,-480.77 777.61,-480.77"/>
</g>
<!-- eval -->
<g id="node12" class="node">
<title>eval</title>
<path fill="#e8fff1" stroke="#444444" stroke-width="1.2" d="M827.71,-274.8C827.71,-274.8 632.29,-274.8 632.29,-274.8 626.29,-274.8 620.29,-268.8 620.29,-262.8 620.29,-262.8 620.29,-229.65 620.29,-229.65 620.29,-223.65 626.29,-217.65 632.29,-217.65 632.29,-217.65 827.71,-217.65 827.71,-217.65 833.71,-217.65 839.71,-223.65 839.71,-229.65 839.71,-229.65 839.71,-262.8 839.71,-262.8 839.71,-268.8 833.71,-274.8 827.71,-274.8"/>
<text xml:space="preserve" text-anchor="middle" x="730" y="-256.2" font-family="Helvetica,sans-Serif" font-size="12.00">Evaluation</text>
<text xml:space="preserve" text-anchor="middle" x="730" y="-241.95" font-family="Helvetica,sans-Serif" font-size="12.00">Precision@K, Recall@K, NDCG@K</text>
<text xml:space="preserve" text-anchor="middle" x="730" y="-227.7" font-family="Helvetica,sans-Serif" font-size="12.00">IPS, SNIPS</text>
</g>
<!-- dataset&#45;&gt;eval -->
<g id="edge15" class="edge">
<title>dataset&#45;&gt;eval</title>
<path fill="none" stroke="#666666" stroke-width="1.2" d="M735.06,-525.45C735.06,-525.45 735.06,-284.85 735.06,-284.85"/>
<polygon fill="#666666" stroke="#666666" stroke-width="1.2" points="737.86,-284.85 735.06,-276.85 732.26,-284.85 737.86,-284.85"/>
</g>
<!-- artifact -->
<g id="node11" class="node">
<title>artifact</title>
<path fill="#e8fff1" stroke="#444444" stroke-width="1.2" d="M695.34,-369.25C695.34,-369.25 620.66,-369.25 620.66,-369.25 614.66,-369.25 608.66,-363.25 608.66,-357.25 608.66,-357.25 608.66,-345.25 608.66,-345.25 608.66,-339.25 614.66,-333.25 620.66,-333.25 620.66,-333.25 695.34,-333.25 695.34,-333.25 701.34,-333.25 707.34,-339.25 707.34,-345.25 707.34,-345.25 707.34,-357.25 707.34,-357.25 707.34,-363.25 701.34,-369.25 695.34,-369.25"/>
<text xml:space="preserve" text-anchor="middle" x="658" y="-346.98" font-family="Helvetica,sans-Serif" font-size="12.00">Model Artifact</text>
</g>
<!-- train&#45;&gt;artifact -->
<g id="edge13" class="edge">
<title>train&#45;&gt;artifact</title>
<path fill="none" stroke="#666666" stroke-width="1.2" d="M762.37,-449C726.52,-449 690.25,-449 690.25,-449 690.25,-449 690.25,-379.45 690.25,-379.45"/>
<polygon fill="#666666" stroke="#666666" stroke-width="1.2" points="693.05,-379.45 690.25,-371.45 687.45,-379.45 693.05,-379.45"/>
</g>
<!-- artifact&#45;&gt;eval -->
<g id="edge14" class="edge">
<title>artifact&#45;&gt;eval</title>
<path fill="none" stroke="#666666" stroke-width="1.2" d="M663.81,-332.96C663.81,-332.96 663.81,-284.81 663.81,-284.81"/>
<polygon fill="#666666" stroke="#666666" stroke-width="1.2" points="666.61,-284.81 663.81,-276.81 661.01,-284.81 666.61,-284.81"/>
</g>
<!-- api -->
<g id="node13" class="node">
<title>api</title>
<path fill="#fff0e6" stroke="#444444" stroke-width="1.2" d="M258.08,-781.15C258.08,-781.15 169.91,-781.15 169.91,-781.15 163.91,-781.15 157.91,-775.15 157.91,-769.15 157.91,-769.15 157.91,-750.25 157.91,-750.25 157.91,-744.25 163.91,-738.25 169.91,-738.25 169.91,-738.25 258.08,-738.25 258.08,-738.25 264.08,-738.25 270.08,-744.25 270.08,-750.25 270.08,-750.25 270.08,-769.15 270.08,-769.15 270.08,-775.15 264.08,-781.15 258.08,-781.15"/>
<text xml:space="preserve" text-anchor="middle" x="214" y="-762.55" font-family="Helvetica,sans-Serif" font-size="12.00">FastAPI Service</text>
<text xml:space="preserve" text-anchor="middle" x="214" y="-748.3" font-family="Helvetica,sans-Serif" font-size="12.00">/rank&#45;feed&#45;v2</text>
</g>
<!-- artifact&#45;&gt;api -->
<g id="edge16" class="edge">
<title>artifact&#45;&gt;api</title>
<path fill="none" stroke="#666666" stroke-width="1.2" d="M608.18,-351C532.68,-351 398,-351 398,-351 398,-351 398,-766 398,-766 398,-766 280.27,-766 280.27,-766"/>
<polygon fill="#666666" stroke="#666666" stroke-width="1.2" points="280.27,-763.2 272.27,-766 280.27,-768.8 280.27,-763.2"/>
</g>
<!-- retrieval -->
<g id="node14" class="node">
<title>retrieval</title>
<path fill="#fff0e6" stroke="#444444" stroke-width="1.2" d="M136.21,-656.05C136.21,-656.05 27.79,-656.05 27.79,-656.05 21.79,-656.05 15.79,-650.05 15.79,-644.05 15.79,-644.05 15.79,-632.05 15.79,-632.05 15.79,-626.05 21.79,-620.05 27.79,-620.05 27.79,-620.05 136.21,-620.05 136.21,-620.05 142.21,-620.05 148.21,-626.05 148.21,-632.05 148.21,-632.05 148.21,-644.05 148.21,-644.05 148.21,-650.05 142.21,-656.05 136.21,-656.05"/>
<text xml:space="preserve" text-anchor="middle" x="82" y="-633.77" font-family="Helvetica,sans-Serif" font-size="12.00">Candidate Retrieval</text>
</g>
<!-- api&#45;&gt;retrieval -->
<g id="edge17" class="edge">
<title>api&#45;&gt;retrieval</title>
<path fill="none" stroke="#666666" stroke-width="1.2" d="M164.91,-737.66C164.91,-702.59 164.91,-638 164.91,-638 164.91,-638 158.35,-638 158.35,-638"/>
<polygon fill="#666666" stroke="#666666" stroke-width="1.2" points="158.35,-635.2 150.35,-638 158.35,-640.8 158.35,-635.2"/>
</g>
<!-- assembly -->
<g id="node15" class="node">
<title>assembly</title>
<path fill="#fff0e6" stroke="#444444" stroke-width="1.2" d="M292.33,-561.6C292.33,-561.6 193.66,-561.6 193.66,-561.6 187.66,-561.6 181.66,-555.6 181.66,-549.6 181.66,-549.6 181.66,-537.6 181.66,-537.6 181.66,-531.6 187.66,-525.6 193.66,-525.6 193.66,-525.6 292.33,-525.6 292.33,-525.6 298.33,-525.6 304.33,-531.6 304.33,-537.6 304.33,-537.6 304.33,-549.6 304.33,-549.6 304.33,-555.6 298.33,-561.6 292.33,-561.6"/>
<text xml:space="preserve" text-anchor="middle" x="243" y="-539.32" font-family="Helvetica,sans-Serif" font-size="12.00">Feature Assembly</text>
</g>
<!-- retrieval&#45;&gt;assembly -->
<g id="edge18" class="edge">
<title>retrieval&#45;&gt;assembly</title>
<path fill="none" stroke="#666666" stroke-width="1.2" d="M82,-619.47C82,-592.06 82,-544 82,-544 82,-544 171.4,-544 171.4,-544"/>
<polygon fill="#666666" stroke="#666666" stroke-width="1.2" points="171.4,-546.8 179.4,-544 171.4,-541.2 171.4,-546.8"/>
</g>
<!-- ranking -->
<g id="node17" class="node">
<title>ranking</title>
<path fill="#fff0e6" stroke="#444444" stroke-width="1.2" d="M284.46,-467.15C284.46,-467.15 201.54,-467.15 201.54,-467.15 195.54,-467.15 189.54,-461.15 189.54,-455.15 189.54,-455.15 189.54,-443.15 189.54,-443.15 189.54,-437.15 195.54,-431.15 201.54,-431.15 201.54,-431.15 284.46,-431.15 284.46,-431.15 290.46,-431.15 296.46,-437.15 296.46,-443.15 296.46,-443.15 296.46,-455.15 296.46,-455.15 296.46,-461.15 290.46,-467.15 284.46,-467.15"/>
<text xml:space="preserve" text-anchor="middle" x="243" y="-444.88" font-family="Helvetica,sans-Serif" font-size="12.00">Ranking Model</text>
</g>
<!-- assembly&#45;&gt;ranking -->
<g id="edge20" class="edge">
<title>assembly&#45;&gt;ranking</title>
<path fill="none" stroke="#666666" stroke-width="1.2" d="M243,-525.39C243,-525.39 243,-477.44 243,-477.44"/>
<polygon fill="#666666" stroke="#666666" stroke-width="1.2" points="245.8,-477.44 243,-469.44 240.2,-477.44 245.8,-477.44"/>
</g>
<!-- redis&#45;&gt;assembly -->
<g id="edge19" class="edge">
<title>redis&#45;&gt;assembly</title>
<path fill="none" stroke="#666666" stroke-width="1.2" d="M243,-619.84C243,-619.84 243,-571.89 243,-571.89"/>
<polygon fill="#666666" stroke="#666666" stroke-width="1.2" points="245.8,-571.89 243,-563.89 240.2,-571.89 245.8,-571.89"/>
</g>
<!-- rerank -->
<g id="node18" class="node">
<title>rerank</title>
<path fill="#fff0e6" stroke="#444444" stroke-width="1.2" d="M302.08,-372.7C302.08,-372.7 183.92,-372.7 183.92,-372.7 177.92,-372.7 171.92,-366.7 171.92,-360.7 171.92,-360.7 171.92,-341.8 171.92,-341.8 171.92,-335.8 177.92,-329.8 183.92,-329.8 183.92,-329.8 302.08,-329.8 302.08,-329.8 308.08,-329.8 314.08,-335.8 314.08,-341.8 314.08,-341.8 314.08,-360.7 314.08,-360.7 314.08,-366.7 308.08,-372.7 302.08,-372.7"/>
<text xml:space="preserve" text-anchor="middle" x="243" y="-354.1" font-family="Helvetica,sans-Serif" font-size="12.00">Reranking Layer</text>
<text xml:space="preserve" text-anchor="middle" x="243" y="-339.85" font-family="Helvetica,sans-Serif" font-size="12.00">(freshness + diversity)</text>
</g>
<!-- ranking&#45;&gt;rerank -->
<g id="edge21" class="edge">
<title>ranking&#45;&gt;rerank</title>
<path fill="none" stroke="#666666" stroke-width="1.2" d="M243,-430.74C243,-430.74 243,-382.82 243,-382.82"/>
<polygon fill="#666666" stroke="#666666" stroke-width="1.2" points="245.8,-382.82 243,-374.82 240.2,-382.82 245.8,-382.82"/>
</g>
<!-- feed -->
<g id="node19" class="node">
<title>feed</title>
<path fill="#fff0e6" stroke="#444444" stroke-width="1.2" d="M299.33,-264.23C299.33,-264.23 194.67,-264.23 194.67,-264.23 188.67,-264.23 182.67,-258.23 182.67,-252.23 182.67,-252.23 182.67,-240.23 182.67,-240.23 182.67,-234.23 188.67,-228.23 194.67,-228.23 194.67,-228.23 299.33,-228.23 299.33,-228.23 305.33,-228.23 311.33,-234.23 311.33,-240.23 311.33,-240.23 311.33,-252.23 311.33,-252.23 311.33,-258.23 305.33,-264.23 299.33,-264.23"/>
<text xml:space="preserve" text-anchor="middle" x="247" y="-241.95" font-family="Helvetica,sans-Serif" font-size="12.00">Final Ranked Feed</text>
</g>
<!-- rerank&#45;&gt;feed -->
<g id="edge22" class="edge">
<title>rerank&#45;&gt;feed</title>
<path fill="none" stroke="#666666" stroke-width="1.2" d="M247,-329.23C247,-329.23 247,-274.52 247,-274.52"/>
<polygon fill="#666666" stroke="#666666" stroke-width="1.2" points="249.8,-274.52 247,-266.52 244.2,-274.52 249.8,-274.52"/>
</g>
<!-- ui -->
<g id="node20" class="node">
<title>ui</title>
<path fill="#ffecec" stroke="#444444" stroke-width="1.2" d="M822.09,-149.9C822.09,-149.9 757.91,-149.9 757.91,-149.9 751.91,-149.9 745.91,-143.9 745.91,-137.9 745.91,-137.9 745.91,-125.9 745.91,-125.9 745.91,-119.9 751.91,-113.9 757.91,-113.9 757.91,-113.9 822.09,-113.9 822.09,-113.9 828.09,-113.9 834.09,-119.9 834.09,-125.9 834.09,-125.9 834.09,-137.9 834.09,-137.9 834.09,-143.9 828.09,-149.9 822.09,-149.9"/>
<text xml:space="preserve" text-anchor="middle" x="790" y="-127.62" font-family="Helvetica,sans-Serif" font-size="12.00">Streamlit UI</text>
</g>
<!-- feed&#45;&gt;ui -->
<g id="edge23" class="edge">
<title>feed&#45;&gt;ui</title>
<path fill="none" stroke="#666666" stroke-width="1.2" d="M247,-227.87C247,-195.58 247,-132 247,-132 247,-132 735.75,-132 735.75,-132"/>
<polygon fill="#666666" stroke="#666666" stroke-width="1.2" points="735.75,-134.8 743.75,-132 735.75,-129.2 735.75,-134.8"/>
</g>
<!-- user -->
<g id="node21" class="node">
<title>user</title>
<path fill="#ffecec" stroke="#444444" stroke-width="1.2" d="M903.34,-58.9C903.34,-58.9 744.66,-58.9 744.66,-58.9 738.66,-58.9 732.66,-52.9 732.66,-46.9 732.66,-46.9 732.66,-28 732.66,-28 732.66,-22 738.66,-16 744.66,-16 744.66,-16 903.34,-16 903.34,-16 909.34,-16 915.34,-22 915.34,-28 915.34,-28 915.34,-46.9 915.34,-46.9 915.34,-52.9 909.34,-58.9 903.34,-58.9"/>
<text xml:space="preserve" text-anchor="middle" x="824" y="-40.3" font-family="Helvetica,sans-Serif" font-size="12.00">User Interactions</text>
<text xml:space="preserve" text-anchor="middle" x="824" y="-26.05" font-family="Helvetica,sans-Serif" font-size="12.00">(impression, click, save, hide)</text>
</g>
<!-- ui&#45;&gt;user -->
<g id="edge24" class="edge">
<title>ui&#45;&gt;user</title>
<path fill="none" stroke="#666666" stroke-width="1.2" d="M790,-113.69C790,-113.69 790,-69.07 790,-69.07"/>
<polygon fill="#666666" stroke="#666666" stroke-width="1.2" points="792.8,-69.07 790,-61.07 787.2,-69.07 792.8,-69.07"/>
</g>
<!-- user&#45;&gt;events -->
<g id="edge25" class="edge">
<title>user&#45;&gt;events</title>
<path fill="none" stroke="#666666" stroke-width="1.2" d="M732.29,-37C637.72,-37 503.96,-37 503.96,-37 503.96,-37 503.96,-731.29 503.96,-731.29"/>
<polygon fill="#666666" stroke="#666666" stroke-width="1.2" points="501.16,-731.29 503.96,-739.29 506.76,-731.29 501.16,-731.29"/>
</g>
</g>
</svg>
